<?xml version="1.0" encoding="utf-8"?>
<!-- Generator: Adobe Illustrator 27.3.1, SVG Export Plug-In . SVG Version: 6.00 Build 0)  -->
<svg version="1.1" id="Layer_1" xmlns="http://www.w3.org/2000/svg" xmlns:xlink="http://www.w3.org/1999/xlink" x="0px" y="0px"
	 viewBox="0 0 757.4 185.9" style="enable-background:new 0 0 757.4 185.9;" xml:space="preserve">
<style type="text/css">
	.st0{fill:url(#SVGID_1_);}
	.st1{fill:url(#SVGID_00000139257924666093704980000010079634175519377572_);}
</style>
<g>
	
		<linearGradient id="SVGID_1_" gradientUnits="userSpaceOnUse" x1="22.4864" y1="95.8526" x2="114.4865" y2="95.186" gradientTransform="matrix(1 0 0 -1 0 188)">
		<stop  offset="0" style="stop-color:#253D8E"/>
		<stop  offset="0.1147" style="stop-color:#4D4291"/>
		<stop  offset="0.28" style="stop-color:#764B97"/>
		<stop  offset="0.4427" style="stop-color:#94549C"/>
		<stop  offset="0.5991" style="stop-color:#AC5BA0"/>
		<stop  offset="0.7475" style="stop-color:#BE61A4"/>
		<stop  offset="0.8848" style="stop-color:#C965A7"/>
		<stop  offset="1" style="stop-color:#CD67A8"/>
	</linearGradient>
	<path class="st0" d="M104,161.8L104,161.8c0-0.9,0-1.9,0-2.8c0-1.7,0-3.4,0-5.2c0-1.5,0-3-0.2-4.4c-2-18.8-11.4-37.1-27-46
		c-13.4-7.7-27.4-11.1-27.4-11.1c1.5-0.2,13.9-3.5,26.9-11.3c12.4-7.4,25.3-26.4,27.5-45.2V23.4l-78.9-0.2L25,35.6l65.9,0.2
		C88,56.1,69.8,72.3,45.7,77.7c-5.2,1.2-20.4,2.8-20.4,2.8v23.2c0,0,17.3,1.5,23.1,3c20,5.2,39.7,22.1,42.5,42.6l-66.2-0.2v12.4
		L104,161.8"/>
	
		<linearGradient id="SVGID_00000072995428731287199790000002490580862477228703_" gradientUnits="userSpaceOnUse" x1="22.4885" y1="96.128" x2="114.4885" y2="95.4613" gradientTransform="matrix(1 0 0 -1 0 188)">
		<stop  offset="0" style="stop-color:#253D8E"/>
		<stop  offset="0.1147" style="stop-color:#4D4291"/>
		<stop  offset="0.28" style="stop-color:#764B97"/>
		<stop  offset="0.4427" style="stop-color:#94549C"/>
		<stop  offset="0.5991" style="stop-color:#AC5BA0"/>
		<stop  offset="0.7475" style="stop-color:#BE61A4"/>
		<stop  offset="0.8848" style="stop-color:#C965A7"/>
		<stop  offset="1" style="stop-color:#CD67A8"/>
	</linearGradient>
	<path style="fill:url(#SVGID_00000072995428731287199790000002490580862477228703_);" d="M129.2,136.2c0.4,6.3,0.4,25.4,0.4,25.4
		h-13.3c0,0,0.4-19.1,0-25.4c-1-15.6-11.2-28.7-24-36.4c-0.5-0.3-1-0.6-1.4-0.8c-7.3-4.1-15.7-6.4-24.6-6.4c8,0,15.6-1.9,22.4-5.2
		c0.7-0.4,1.5-0.8,2.2-1.2c0.5-0.3,1-0.5,1.4-0.8c12.8-7.7,22.9-20.9,24-36.4c0.4-6.3,0-25.4,0-25.4h13.3c0,0,0,19.1-0.4,25.4
		c-1.1,17.9-11.2,33.4-24.7,43.7C118,102.8,128.2,118.3,129.2,136.2z"/>
</g>
<g>
	<path d="M218.9,132h-31.1V53.3h30c13.6,0,21.7,8,21.7,20.4c0,9.5-4.8,15.7-11.3,17.9c7.8,1.9,12.8,10,12.8,18.9
		C241,123.6,232.9,132,218.9,132z M214.7,68.7H204v16.5h10.6c5.3,0,8.3-2.8,8.3-8.2S220,68.7,214.7,68.7z M215.8,99.2H204v17.4h12
		c5.4,0,8.6-2.9,8.6-8.5C224.6,102.4,221.2,99.2,215.8,99.2z"/>
	<path d="M277.7,53.3c16.3,0,24.5,11.1,24.5,24.8c0,9.9-4.6,19.2-14.8,22.8l15.4,31.2h-18.3l-13.9-29.7h-3.9V132h-16.3V53.3H277.7z
		 M276.8,69.3h-10.1v19.5h10.1c6.1,0,8.9-3.7,8.9-9.9C285.7,73.1,282.8,69.3,276.8,69.3z"/>
	<path d="M312.4,53.3h16.3V132h-16.3V53.3z"/>
	<path d="M400.4,92.7c0,23.3-13.7,39.3-35,39.3h-25V53.3h25C386.7,53.3,400.4,69.3,400.4,92.7z M364.4,115.4
		c12.3,0,19.5-8.3,19.5-22.8s-7.2-23-19.5-23h-7.7v45.7L364.4,115.4L364.4,115.4z"/>
	<path d="M471.8,78.2h-18c-2.5-5.3-7-8.1-13.1-8.1c-10.5,0-17.4,8.7-17.4,22.4c0,14.6,7,23.1,18.7,23.1c8.1,0,13.7-5,16.2-13.9
		h-20.6V87.6H473v17.8c-3.4,13.6-14.5,27.1-32.1,27.1c-20,0-34-16.5-34-40s14-40.1,33.9-40.1C456.7,52.4,468.3,62.1,471.8,78.2z"/>
	<path d="M522.8,68.7h-24.6v15.9H520v14.8h-21.8v17.3h24.6V132h-40.9V53.3h40.9V68.7z"/>
	<path d="M541.7,95.8V132H535V53.7h6.7v36.7l28.8-36.7h8.5l-31.1,39.1l31.4,39.2h-8.7L541.7,95.8z"/>
	<path d="M627.5,113.4h-30.2l-5.8,18.6h-7l24.2-77.3h7.5l24.1,77.3h-7L627.5,113.4z M612.4,64.5l-13.1,42.4h26.2L612.4,64.5z"/>
	<path d="M657.7,53.7v72h23.9v6.4H651V53.7H657.7z"/>
	<path d="M729.5,113.4h-30.2l-5.8,18.6h-7l24.2-77.3h7.5l24.1,77.3h-7L729.5,113.4z M714.4,64.5l-13.1,42.4h26.2L714.4,64.5z"/>
</g>
<rect x="159.1" y="14.7" width="0.7" height="156.4"/>
</svg>
